<svg width="324" height="207" xmlns="http://www.w3.org/2000/svg" xmlns:xlink="http://www.w3.org/1999/xlink" xml:space="preserve" overflow="hidden"><g transform="translate(-1813 -2246)"><g><g><g><path d="M2099.33 2293.22C2076.44 2291.37 2055.11 2280.89 2039.65 2263.9 2036.74 2260.51 2031.63 2260.14 2028.24 2263.05 2027.94 2263.31 2027.66 2263.59 2027.4 2263.9 2011.95 2280.89 1990.61 2291.36 1967.72 2293.19 1963.46 2293.6 1960.22 2297.2 1960.25 2301.48L1960.25 2322.36C1960.25 2367.78 1989.05 2409.32 2029.02 2435.02 2031.76 2436.8 2035.29 2436.8 2038.03 2435.02 2078 2409.32 2106.8 2367.8 2106.8 2322.38L2106.8 2301.51C2106.84 2297.23 2103.6 2293.63 2099.33 2293.22ZM2102.48 2322.39C2102.48 2363.75 2077.52 2404.51 2035.7 2431.4 2034.38 2432.26 2032.67 2432.26 2031.35 2431.4 1989.53 2404.51 1964.56 2363.74 1964.56 2322.36L1964.56 2301.48C1964.53 2299.45 1966.04 2297.72 1968.06 2297.5 1992.05 2295.6 2014.42 2284.62 2030.59 2266.8 2031.33 2265.94 2032.39 2265.44 2033.52 2265.41 2034.65 2265.44 2035.72 2265.94 2036.46 2266.8 2052.64 2284.62 2075 2295.6 2098.99 2297.52 2101.02 2297.74 2102.53 2299.47 2102.49 2301.51Z" stroke="#FFC000" stroke-width="4.3125" fill="#747474"/><path d="M1977.5 2309.39 1977.5 2322.37C1977.5 2357.74 1998.34 2392.88 2033.53 2417.3 2068.71 2392.87 2089.55 2357.74 2089.55 2322.39L2089.55 2309.39C2068.6 2306.06 2049.1 2296.6 2033.52 2282.19 2017.95 2296.6 1998.45 2306.07 1977.5 2309.39ZM2085.23 2322.39C2085.23 2355.23 2065.96 2388.54 2033.53 2412.02 2001.09 2388.53 1981.81 2355.22 1981.81 2322.36L1981.81 2313.01C2000.94 2309.33 2018.77 2300.7 2033.52 2287.97 2048.27 2300.7 2066.1 2309.33 2085.23 2313.02Z" stroke="#FFC000" stroke-width="4.3125" fill="#747474"/><path d="M2013.46 2324.26 2010.41 2327.31 2030.45 2347.34 2010.41 2367.38 2013.46 2370.43 2033.5 2350.39 2053.54 2370.43 2056.59 2367.38 2036.55 2347.34 2056.59 2327.31 2053.54 2324.26 2033.5 2344.29 2013.46 2324.26Z" stroke="#FFC000" stroke-width="4.3125" fill="#747474"/></g></g></g><g><g><g><path d="M1982.37 2295.25C1959.5 2293.43 1938.17 2282.99 1922.7 2266.05 1919.78 2262.67 1914.68 2262.3 1911.3 2265.21 1911 2265.47 1910.72 2265.75 1910.46 2266.05 1894.99 2282.99 1873.66 2293.43 1850.79 2295.25 1846.54 2295.65 1843.3 2299.23 1843.33 2303.5L1843.33 2324.31C1843.33 2369.57 1872.11 2410.96 1912.07 2436.57 1914.82 2438.34 1918.34 2438.34 1921.08 2436.57 1961.04 2410.95 1989.82 2369.57 1989.82 2324.31L1989.82 2303.5C1989.86 2299.23 1986.62 2295.65 1982.37 2295.25ZM1975.81 2324.31C1975.81 2360.32 1954.35 2396.65 1918.42 2421.51L1916.58 2422.78 1914.74 2421.51C1878.8 2396.65 1857.35 2360.31 1857.35 2324.31L1857.35 2308.68 1860.07 2308.25C1880.38 2305.04 1899.28 2295.88 1914.39 2281.94L1916.58 2279.92 1918.77 2281.94C1933.88 2295.88 1952.78 2305.04 1973.08 2308.25L1975.81 2308.68Z" stroke="#FFC000" stroke-width="4.3125" fill="#3A3A3A"/><path d="M1916.58 2288.67C1901.61 2301.76 1883.38 2310.57 1863.82 2314.16L1863.82 2324.31C1863.82 2357.58 1883.5 2391.29 1916.58 2414.9 1949.66 2391.3 1969.34 2357.58 1969.34 2324.31L1969.34 2314.16C1949.78 2310.57 1931.55 2301.76 1916.58 2288.67ZM1911.04 2372.86 1889.24 2351.05 1896.65 2343.64 1911.04 2358.04 1940.52 2328.56 1947.93 2335.97Z" stroke="#FFC000" stroke-width="4.3125" fill="#3A3A3A"/></g></g></g></g></svg>